<svg width="15" height="37" viewBox="0 0 15 37" fill="none" xmlns="http://www.w3.org/2000/svg">
<path d="M4.24401 12.6889L0.828515 6.80294L4.23051 0.916941H6.91702L3.42051 6.80294L6.91702 12.6889H4.24401ZM8.29043 12.6889L11.7869 6.80294L8.29043 0.916941H10.9769L14.3789 6.80294L10.9634 12.6889H8.29043ZM1.06287 23.5649H2.28894V32.3057L2.18347 33.6899H1.06287V23.5649ZM7.10754 30.0645V30.2029C7.10754 30.7214 7.04602 31.2026 6.92297 31.6465C6.79993 32.0859 6.61975 32.4683 6.38245 32.7935C6.14514 33.1187 5.8551 33.3713 5.51233 33.5515C5.16956 33.7317 4.77625 33.8218 4.3324 33.8218C3.87976 33.8218 3.48206 33.7449 3.13928 33.5911C2.8009 33.4329 2.51526 33.2065 2.28235 32.9121C2.04944 32.6177 1.86267 32.2617 1.72205 31.8442C1.58582 31.4268 1.49133 30.9565 1.4386 30.4336V29.8271C1.49133 29.2998 1.58582 28.8274 1.72205 28.4099C1.86267 27.9924 2.04944 27.6365 2.28235 27.342C2.51526 27.0432 2.8009 26.8169 3.13928 26.6631C3.47766 26.5049 3.87097 26.4258 4.31921 26.4258C4.76746 26.4258 5.16516 26.5137 5.51233 26.6895C5.8595 26.8608 6.14954 27.1069 6.38245 27.4277C6.61975 27.7485 6.79993 28.1331 6.92297 28.5813C7.04602 29.0251 7.10754 29.5195 7.10754 30.0645ZM5.88147 30.2029V30.0645C5.88147 29.7085 5.84851 29.3745 5.78259 29.0625C5.71667 28.7461 5.61121 28.4692 5.46619 28.2319C5.32117 27.9902 5.13 27.8013 4.8927 27.665C4.6554 27.5244 4.36316 27.4541 4.01599 27.4541C3.70837 27.4541 3.44031 27.5068 3.21179 27.6123C2.98767 27.7178 2.79651 27.8606 2.63831 28.0408C2.4801 28.2166 2.35046 28.4187 2.24939 28.6472C2.15271 28.8713 2.0802 29.1042 2.03186 29.3459V30.9346C2.10217 31.2422 2.21643 31.5388 2.37463 31.8245C2.53723 32.1057 2.75256 32.3364 3.02063 32.5166C3.29309 32.6968 3.62927 32.7869 4.02917 32.7869C4.35876 32.7869 4.64001 32.7209 4.87292 32.5891C5.11023 32.4529 5.30139 32.2661 5.44641 32.0288C5.59583 31.7915 5.70569 31.5168 5.776 31.2048C5.84631 30.8928 5.88147 30.5588 5.88147 30.2029ZM10.5748 32.9517L12.559 26.5576H13.8641L11.0033 34.7908C10.9374 34.9666 10.8495 35.1555 10.7396 35.3577C10.6342 35.5642 10.4979 35.7598 10.3309 35.9443C10.1639 36.1289 9.96179 36.2783 9.72449 36.3926C9.49158 36.5112 9.21252 36.5706 8.88733 36.5706C8.79065 36.5706 8.6676 36.5574 8.51819 36.531C8.36877 36.5046 8.26331 36.4827 8.20178 36.4651L8.19519 35.4763C8.23035 35.4807 8.28528 35.4851 8.35999 35.4895C8.43909 35.4983 8.49402 35.5027 8.52478 35.5027C8.80164 35.5027 9.03674 35.4653 9.2301 35.3906C9.42346 35.3203 9.58606 35.1995 9.7179 35.0281C9.85413 34.8611 9.97058 34.6304 10.0673 34.3359L10.5748 32.9517ZM9.11804 26.5576L10.9703 32.0947L11.2867 33.3801L10.41 33.8284L7.7865 26.5576H9.11804Z" fill="#9E9E9E"/>
</svg>
